<svg version="1.0" xmlns="http://www.w3.org/2000/svg"
 width="1024.000000pt" height="751.000000pt" viewBox="0 0 1024.000000 751.000000"
 preserveAspectRatio="xMidYMid meet">

<g transform="translate(0.000000,751.000000) scale(0.100000,-0.100000)"
fill="#A768ED" stroke="none">
<path style="fill:#FFFFFF" d="M5510 7201 c0 -118 -12 -149 -73 -195 -28 -21 -39 -21 -670 -27 -443
-3 -652 -9 -675 -17 -89 -30 -161 -92 -204 -175 -33 -64 -37 -184 -8 -260 26
-70 99 -148 167 -180 48 -22 51 -22 698 -27 l650 -5 38 -24 c21 -12 46 -40 57
-62 40 -78 15 -176 -57 -220 l-38 -24 -645 -5 -645 -5 -56 -26 c-69 -33 -127
-89 -160 -155 -20 -41 -24 -63 -24 -144 0 -83 4 -101 27 -146 33 -64 113 -136
176 -160 43 -17 100 -19 694 -24 633 -5 647 -5 674 -26 61 -45 69 -66 72 -190
l4 -114 80 0 80 0 -4 133 c-3 124 -5 135 -32 185 -55 98 -138 155 -253 172
-38 5 -326 10 -659 10 l-591 0 -34 23 c-58 39 -81 83 -77 148 5 63 32 110 81
137 29 15 89 17 677 22 l645 5 55 26 c66 31 131 94 162 157 19 39 23 63 23
142 0 83 -4 101 -27 145 -28 53 -96 123 -144 148 -67 34 -130 37 -740 37 -583
0 -606 1 -644 20 -55 28 -83 72 -88 139 -4 65 19 109 77 148 l34 23 591 0
c339 0 620 5 660 10 125 18 224 95 266 206 16 43 20 79 20 169 l0 115 -80 0
-80 0 0 -109z"/>
<path d="M3690 3750 c0 -1059 0 -1070 21 -1133 40 -121 140 -221 259 -257 63
-20 89 -20 900 -18 l835 3 66 31 c118 56 205 168 229 293 5 29 10 116 10 191
l0 138 173 4 c191 5 225 13 315 75 67 46 127 128 152 211 19 59 20 94 20 457
0 358 -2 399 -19 454 -37 121 -110 204 -227 258 -56 27 -67 28 -236 31 l-178
4 0 164 0 164 -1160 0 -1160 0 0 -1070z m2664 556 c53 -22 113 -83 133 -134
16 -42 18 -85 18 -432 0 -383 0 -385 -23 -432 -28 -57 -88 -110 -141 -126 -21
-7 -103 -12 -185 -12 l-146 0 0 575 0 575 155 0 c111 0 165 -4 189 -14z m-836
-502 c89 -155 164 -288 168 -297 3 -9 -61 -131 -166 -314 -94 -164 -175 -302
-180 -307 -6 -6 -104 43 -139 70 -2 2 58 113 134 246 76 134 145 255 153 269
14 25 10 34 -137 294 -84 147 -149 270 -146 273 3 4 34 23 68 42 55 32 63 35
73 21 6 -9 83 -143 172 -297z m-1083 269 l64 -36 -19 -36 c-10 -20 -77 -142
-149 -271 -117 -211 -129 -236 -117 -255 38 -60 286 -504 286 -513 0 -11 -128
-87 -135 -81 -2 2 -84 142 -183 310 l-179 306 176 307 c97 168 179 306 184
306 4 0 37 -17 72 -37z m602 1 l51 -15 -10 -37 c-6 -20 -77 -279 -159 -576
-82 -296 -149 -540 -149 -542 0 -9 -36 -3 -101 17 -55 17 -69 25 -65 38 3 9
69 239 146 511 202 710 177 633 208 625 15 -3 50 -13 79 -21z"/>
<path d="M9128 1445 c-216 -59 -344 -253 -317 -480 28 -230 256 -403 481 -366
300 50 455 361 316 635 -31 60 -117 145 -178 176 -97 49 -207 62 -302 35z
m192 -121 c68 -20 149 -94 181 -167 33 -73 33 -191 1 -262 -50 -110 -154 -178
-272 -179 -167 0 -290 134 -290 317 0 168 129 303 291 306 19 1 59 -6 89 -15z"/>
<path style="fill:#FFFFFF" d="M1985 1414 c-9 -21 -86 -208 -172 -414 -85 -206 -157 -378 -160 -382
-2 -5 25 -8 60 -8 62 0 66 1 75 27 5 16 24 63 42 106 l32 78 141 -3 140 -3 42
-100 41 -100 62 -3 c34 -2 62 -1 62 0 0 2 -78 192 -174 423 l-174 419 -17 -40z
m69 -368 c26 -65 45 -121 42 -123 -2 -2 -46 -2 -99 -1 l-95 3 33 85 c49 127
65 164 69 159 3 -2 25 -58 50 -123z"/>
<path d="M5465 1039 c-93 -226 -171 -415 -173 -420 -2 -5 25 -9 60 -9 l65 0
43 105 43 105 137 0 138 0 43 -105 43 -105 64 0 c57 0 63 2 58 18 -33 87 -342
822 -346 822 -3 0 -81 -185 -175 -411z m224 13 c22 -59 41 -110 41 -115 0 -4
-40 -7 -90 -7 -49 0 -90 3 -90 7 0 15 84 223 91 223 3 0 25 -48 48 -108z"/>
<path d="M6108 1445 c-5 -5 -8 -194 -8 -422 l0 -413 60 0 60 0 0 120 0 120
104 0 c91 0 107 -3 137 -23 54 -36 89 -95 96 -160 l6 -57 64 0 64 0 -7 58
c-11 92 -40 156 -89 200 l-43 38 43 41 c72 71 100 157 83 256 -18 98 -74 168
-171 213 -54 24 -72 27 -225 31 -92 3 -170 2 -174 -2z m316 -114 c70 -17 136
-104 136 -181 0 -48 -31 -110 -69 -143 -43 -36 -96 -48 -189 -45 l-77 3 -3
175 c-1 96 0 180 2 187 6 15 139 18 200 4z"/>
<path d="M6952 1037 c-95 -227 -172 -417 -172 -420 0 -4 28 -7 63 -7 l62 0 41
103 41 102 139 3 139 2 43 -105 44 -105 64 0 c62 0 63 1 55 23 -37 94 -334
804 -340 810 -4 4 -85 -178 -179 -406z m225 12 c24 -62 42 -114 40 -116 -3 -2
-45 -2 -94 -1 l-89 3 45 117 c25 64 47 115 50 113 2 -3 24 -55 48 -116z"/>
<path d="M7550 1128 c0 -294 2 -327 19 -364 49 -107 145 -168 266 -167 86 0
151 29 212 95 70 77 74 101 71 449 l-3 304 -57 3 -58 3 0 -300 c0 -187 -4
-310 -11 -328 -39 -103 -170 -142 -256 -77 -58 44 -58 43 -63 384 l-5 315 -57
3 -58 3 0 -323z"/>
<path d="M8560 1143 c0 -180 -4 -323 -10 -345 -14 -50 -52 -78 -105 -78 -49 0
-83 30 -94 82 -7 33 -7 33 -70 36 l-63 3 7 -43 c24 -145 139 -226 278 -197 43
9 61 21 104 64 72 74 75 93 71 470 l-3 310 -57 3 -58 3 0 -308z"/>
<path style="fill:#FFFFFF" d="M781 1038 c-41 -222 -76 -409 -79 -416 -3 -10 10 -12 59 -10 l63 3
40 232 c22 128 43 229 47 225 4 -4 55 -110 114 -237 59 -126 108 -231 109
-232 1 -1 51 102 110 230 60 127 111 235 115 240 4 4 25 -93 46 -215 21 -123
40 -229 42 -235 3 -9 26 -13 65 -13 52 0 59 2 54 18 -2 9 -37 196 -77 415 -40
218 -77 393 -81 389 -4 -4 -66 -129 -137 -277 -70 -149 -132 -269 -137 -268
-4 0 -67 125 -139 277 -71 151 -132 276 -135 276 -3 0 -39 -181 -79 -402z"/>
<path style="fill:#FFFFFF" d="M2400 1385 l0 -55 105 0 105 0 0 -360 0 -360 55 0 55 0 2 358 3 357
128 3 127 3 0 -361 0 -360 245 0 245 0 0 60 0 60 -185 0 -185 0 0 140 0 140
175 0 175 0 0 55 0 55 -175 0 -175 0 0 105 0 105 185 0 185 0 0 55 0 55 -535
0 -535 0 0 -55z"/>
<path style="fill:#FFFFFF" d="M3612 1123 c4 -354 5 -356 76 -435 54 -59 120 -88 207 -88 118 1 204
52 254 151 l31 62 0 314 0 313 -55 0 -55 0 0 -277 c0 -287 -6 -339 -37 -382
-38 -50 -70 -66 -136 -66 -53 0 -68 4 -99 28 -64 50 -68 70 -68 402 l0 295
-61 0 -60 0 3 -317z"/>
<path style="fill:#FFFFFF" d="M4806 1420 c-133 -52 -169 -105 -245 -361 -62 -207 -76 -242 -113
-276 -29 -27 -89 -53 -123 -53 -24 0 -25 -2 -25 -61 l0 -61 43 7 c123 19 201
71 254 172 17 32 54 135 81 230 28 94 56 182 62 195 26 49 72 86 131 105 l59
18 0 53 0 52 -37 0 c-21 -1 -60 -9 -87 -20z"/>
<path d="M1412 233 l3 -118 59 0 c48 1 61 4 77 23 40 51 32 164 -14 197 -13 9
-43 15 -75 15 l-53 0 3 -117z m96 65 c7 -7 12 -37 12 -68 0 -58 -11 -80 -42
-80 -16 0 -18 10 -18 80 0 70 2 80 18 80 10 0 23 -5 30 -12z"/>
<path d="M1900 230 l0 -121 62 3 c50 2 63 6 66 21 3 14 -4 17 -37 17 -40 0
-41 1 -41 35 0 32 2 35 30 35 20 0 30 5 30 15 0 10 -10 15 -30 15 -27 0 -30 3
-30 30 0 28 2 30 40 30 33 0 40 3 40 20 0 18 -7 20 -65 20 l-65 0 0 -120z"/>
<path d="M2331 323 c-28 -34 -20 -58 31 -104 30 -26 39 -41 34 -54 -5 -14 -14
-16 -40 -12 -40 6 -58 -16 -26 -33 54 -29 120 1 120 55 0 28 -7 40 -40 66 -56
45 -51 90 8 68 16 -6 24 -5 28 6 10 24 -6 35 -51 35 -35 0 -48 -5 -64 -27z"/>
<path d="M2760 230 l0 -121 62 3 c50 2 63 6 66 21 3 14 -4 17 -37 17 -40 0
-41 1 -41 35 0 32 2 35 30 35 20 0 30 5 30 15 0 10 -10 15 -30 15 -27 0 -30 3
-30 30 0 28 2 30 40 30 33 0 40 3 40 20 0 18 -7 20 -65 20 l-65 0 0 -120z"/>
<path d="M3210 230 c0 -113 1 -120 20 -120 18 0 20 7 20 73 l1 72 37 -70 c27
-51 43 -71 60 -73 22 -3 22 -2 22 117 l0 121 -25 0 c-24 0 -25 -2 -25 -67 l-1
-68 -35 68 c-25 49 -40 67 -54 67 -19 0 -20 -7 -20 -120z"/>
<path d="M3700 343 c0 -5 15 -57 33 -118 30 -101 34 -110 57 -110 22 0 27 9
52 95 43 149 42 140 14 140 -26 0 -35 -18 -52 -113 -10 -58 -19 -52 -34 21 -7
37 -15 73 -18 80 -4 13 -52 17 -52 5z"/>
<path d="M4212 327 c-28 -29 -38 -102 -22 -151 21 -66 85 -86 136 -43 45 39
47 154 4 197 -29 29 -90 27 -118 -3z m88 -36 c5 -11 10 -38 10 -61 0 -82 -48
-112 -70 -44 -11 31 -7 95 6 116 10 15 43 8 54 -11z"/>
<path d="M4682 233 l3 -118 56 -3 c50 -3 57 0 62 18 4 17 0 20 -29 20 l-34 0
0 100 0 100 -30 0 -31 0 3 -117z"/>
<path d="M5050 345 c0 -17 62 -221 69 -228 5 -5 17 -7 27 -5 14 2 26 31 51
118 18 63 32 116 33 118 0 2 -12 2 -27 0 -25 -3 -28 -8 -41 -73 -8 -38 -17
-73 -21 -78 -4 -4 -15 29 -25 73 -16 74 -19 80 -41 80 -14 0 -25 -2 -25 -5z"/>
<path d="M5540 230 l0 -121 62 3 c50 2 63 6 66 21 3 14 -4 17 -37 17 -40 0
-41 1 -41 35 0 32 2 35 30 35 20 0 30 5 30 15 0 10 -10 15 -30 15 -27 0 -30 3
-30 30 0 28 2 30 40 30 33 0 40 3 40 20 0 18 -7 20 -65 20 l-65 0 0 -120z"/>
<path d="M5990 229 l0 -121 57 4 c46 4 61 10 81 33 22 26 24 36 20 98 -5 88
-24 107 -104 107 l-54 0 0 -121z m100 62 c16 -30 12 -107 -6 -125 -34 -35 -44
-20 -44 64 0 73 2 80 20 80 10 0 24 -9 30 -19z"/>
<path d="M6509 331 c-19 -16 -24 -30 -27 -89 -4 -68 -3 -73 26 -102 54 -53
122 -34 142 41 14 51 5 110 -22 144 -24 31 -84 35 -119 6z m86 -44 c20 -80
-17 -168 -51 -123 -17 24 -19 117 -2 134 20 20 47 14 53 -11z"/>
<path d="M7000 230 c0 -113 1 -120 20 -120 17 0 20 7 20 45 0 58 21 60 41 3
13 -34 21 -44 42 -46 32 -4 33 -2 6 49 -19 38 -19 42 -4 59 9 10 17 35 18 56
1 50 -29 74 -94 74 l-49 0 0 -120z m88 48 c-2 -25 -8 -34 -25 -36 -20 -3 -23
1 -23 32 0 32 3 36 26 36 23 0 25 -3 22 -32z"/>
<path d="M7761 328 c0 -13 10 -66 22 -118 19 -81 25 -95 43 -98 19 -3 24 6 40
70 l18 73 16 -70 c13 -58 19 -71 37 -73 14 -2 23 3 27 15 5 17 46 211 46 219
0 2 -11 4 -24 4 -22 0 -25 -6 -38 -77 l-15 -78 -14 65 c-11 53 -18 66 -35 68
-18 3 -23 -6 -36 -65 l-14 -68 -14 78 c-12 71 -15 77 -36 77 -18 0 -24 -5 -23
-22z"/>
<path d="M8360 230 l0 -120 60 0 c53 0 60 2 60 20 0 16 -7 20 -35 20 -33 0
-35 2 -35 35 0 32 2 35 30 35 20 0 30 5 30 15 0 10 -10 15 -30 15 -27 0 -30 3
-30 30 0 28 3 30 35 30 28 0 35 4 35 20 0 18 -7 20 -60 20 l-60 0 0 -120z"/>
<path d="M8800 230 l0 -120 39 0 c55 0 89 15 103 46 10 22 9 31 -5 56 -12 21
-14 34 -7 48 28 53 -6 90 -82 90 l-48 0 0 -120z m88 53 c-2 -17 -10 -29 -20
-31 -14 -3 -18 3 -18 27 0 25 4 31 21 31 16 0 20 -5 17 -27z m-4 -76 c24 -17
13 -57 -15 -57 -15 0 -19 7 -19 35 0 38 6 42 34 22z"/>
</g>
</svg>